<svg id="be153cee-3533-4692-8eec-c087af700bac" data-name="Camada 1" xmlns="http://www.w3.org/2000/svg" viewBox="0 0 329.34 80.525">
  <defs>
    <style>
      .a381591c-b8ed-4804-b00d-927196d68274 {
        fill: red;
      }

      .\34 d0cf6e0-3a59-4b3e-9fcd-199867075037, .a381591c-b8ed-4804-b00d-927196d68274, .a774fbd1-6dd6-47b1-ad2a-b1a06f4aec35 {
        fill-rule: evenodd;
      }

      .\34 d0cf6e0-3a59-4b3e-9fcd-199867075037 {
        fill: #242222;
      }

      .\34 5bfc4c8-7f93-412e-85d1-944b963a334c {
        opacity: 0.5;
      }

      .e845e9be-9931-44c7-b583-b997f55b79b5 {
        fill: gray;
      }
    </style>
  </defs>
  <title>logotopo</title>
  <g>
    <g>
      <path d="M181.92,485.983a11.977,11.977,0,0,1-4.659-.829,8.7,8.7,0,0,1-3.238-2.27,9.271,9.271,0,0,1-1.875-3.416,14.321,14.321,0,0,1-.612-4.264V458.029h3.83v16.741q0,4.107,1.816,5.962a6.333,6.333,0,0,0,4.738,1.855,7.481,7.481,0,0,0,2.665-.454,5.314,5.314,0,0,0,2.073-1.4A6.447,6.447,0,0,0,188,478.3a11.647,11.647,0,0,0,.474-3.533V458.029h3.83v17.176a14.336,14.336,0,0,1-.612,4.264,9.137,9.137,0,0,1-1.9,3.416,8.922,8.922,0,0,1-3.237,2.27A11.833,11.833,0,0,1,181.92,485.983Z" transform="translate(-95.575 -431.5)"/>
      <path d="M198.6,485.392V458.029h16.7v3.277H202.435v8.134h11.451v3.2H202.435v9.477h13.859v3.277H198.6Z" transform="translate(-95.575 -431.5)"/>
      <path d="M228.122,457.753q5.765,0,8.864,2.191a7.479,7.479,0,0,1,3.1,6.534,8.878,8.878,0,0,1-.849,4.047,6.965,6.965,0,0,1-2.448,2.725,11.176,11.176,0,0,1-3.889,1.521,25.685,25.685,0,0,1-5.172.474h-3.041v10.147h-3.83V458.424a21.713,21.713,0,0,1,3.613-.533Q226.463,457.753,228.122,457.753Zm0.316,3.355q-2.448,0-3.751.119v10.739h2.882a22.2,22.2,0,0,0,3.554-.257,8.031,8.031,0,0,0,2.665-.868,4.291,4.291,0,0,0,1.678-1.679,5.562,5.562,0,0,0,.592-2.724,5.026,5.026,0,0,0-.612-2.606,4.614,4.614,0,0,0-1.658-1.639,7.192,7.192,0,0,0-2.428-.849A17.259,17.259,0,0,0,228.438,461.108Z" transform="translate(-95.575 -431.5)"/>
      <path d="M251.952,485.629q-0.829,0-1.8-.04t-1.935-.118q-0.968-.079-1.915-0.2a14.676,14.676,0,0,1-1.737-.316V458.424a14.487,14.487,0,0,1,1.737-.315q0.948-.119,1.915-0.2t1.915-.118q0.948-.038,1.777-0.039a26.256,26.256,0,0,1,4.442.355,11.189,11.189,0,0,1,3.593,1.2,6.517,6.517,0,0,1,2.389,2.23,6.267,6.267,0,0,1,.869,3.4,6.049,6.049,0,0,1-1.066,3.692,6.408,6.408,0,0,1-2.843,2.151,8.255,8.255,0,0,1,3.83,2.251,6.166,6.166,0,0,1,1.421,4.343,7,7,0,0,1-3.021,6.18Q258.506,485.628,251.952,485.629Zm-3.593-16.07h4.027a17.375,17.375,0,0,0,2.685-.2,6.619,6.619,0,0,0,2.191-.711,4,4,0,0,0,1.461-1.343,3.8,3.8,0,0,0,.533-2.093,3.458,3.458,0,0,0-.553-1.994,4.012,4.012,0,0,0-1.521-1.3,8.255,8.255,0,0,0-2.27-.73,15.514,15.514,0,0,0-2.764-.236q-1.461,0-2.29.039t-1.5.118v8.45Zm0,3.079v9.635q0.434,0.04,1.027.079,0.513,0.04,1.2.059t1.6,0.021a22.658,22.658,0,0,0,3.218-.218,9.04,9.04,0,0,0,2.666-.77,4.673,4.673,0,0,0,1.836-1.54,4.239,4.239,0,0,0,.691-2.487,4.64,4.64,0,0,0-.513-2.271,3.819,3.819,0,0,0-1.481-1.48,7.142,7.142,0,0,0-2.31-.79,17.326,17.326,0,0,0-3-.237h-4.936Z" transform="translate(-95.575 -431.5)"/>
    </g>
    <g>
      <path class="a381591c-b8ed-4804-b00d-927196d68274" d="M129.577,443.35a15.276,15.276,0,0,0,7.795-11.85l-0.014,7.333c-0.012,6.675-3.3,9.36-7.651,11.79-4.172,2.413-8.432,4.825-12.61,7.227A15.276,15.276,0,0,0,109.3,469.7l0.014-7.333c0.046-5.938,3.221-9.3,7.738-11.8Q123.312,446.952,129.577,443.35Z" transform="translate(-95.575 -431.5)"/>
      <path class="a381591c-b8ed-4804-b00d-927196d68274" d="M129.577,455.433a15.276,15.276,0,0,0,7.795-11.85l-0.014,7.333c-0.012,6.675-3.3,9.36-7.651,11.79-4.172,2.413-8.432,4.825-12.61,7.227a15.276,15.276,0,0,0-7.795,11.85l0.014-7.333c0.013-6.675,3.389-9.365,7.738-11.8Q123.312,459.035,129.577,455.433Z" transform="translate(-95.575 -431.5)"/>
      <path class="a381591c-b8ed-4804-b00d-927196d68274" d="M120.025,498.242c-10.9-.453-17.131-15.114.016-25.139l9.54-5.476a15.277,15.277,0,0,0,7.8-11.846l-0.018,7.333c-0.016,6.675-3.239,9.286-7.589,11.714L117.58,481.8C109.533,486.405,111.216,496.807,120.025,498.242Z" transform="translate(-95.575 -431.5)"/>
    </g>
    <path class="4d0cf6e0-3a59-4b3e-9fcd-199867075037" d="M134.294,483.151a14.867,14.867,0,1,1-28.5,0h-2.408a17.189,17.189,0,1,0,33.32,0h-2.408Z" transform="translate(-95.575 -431.5)"/>
    <path class="a774fbd1-6dd6-47b1-ad2a-b1a06f4aec35" d="M141.526,483.151a21.9,21.9,0,1,1-42.969,0H95.941a24.467,24.467,0,1,0,48.2,0h-2.616Z" transform="translate(-95.575 -431.5)"/>
    <g class="45bfc4c8-7f93-412e-85d1-944b963a334c">
      <path class="e845e9be-9931-44c7-b583-b997f55b79b5" d="M174.971,512.025a5.178,5.178,0,0,1-2.063-.369,3.557,3.557,0,0,1-1.379-1.019,4.077,4.077,0,0,1-.764-1.52,7.072,7.072,0,0,1-.237-1.87v-7.657h1.194v7.5a5.614,5.614,0,0,0,.237,1.73,3.344,3.344,0,0,0,.658,1.2,2.58,2.58,0,0,0,1.019.7,4.012,4.012,0,0,0,2.669,0,2.582,2.582,0,0,0,1.019-.7,3.352,3.352,0,0,0,.659-1.2,5.63,5.63,0,0,0,.237-1.73v-7.5h1.194v7.657a7.072,7.072,0,0,1-.237,1.87,4.077,4.077,0,0,1-.764,1.52,3.557,3.557,0,0,1-1.379,1.019A5.177,5.177,0,0,1,174.971,512.025Z" transform="translate(-95.575 -431.5)"/>
      <path class="e845e9be-9931-44c7-b583-b997f55b79b5" d="M182.452,503q0.509-.141,1.37-0.316a10.8,10.8,0,0,1,2.107-.176,4.387,4.387,0,0,1,1.73.3,2.666,2.666,0,0,1,1.106.852,3.487,3.487,0,0,1,.588,1.326,7.721,7.721,0,0,1,.175,1.7v5.075h-1.142v-4.707a8.636,8.636,0,0,0-.131-1.633,2.722,2.722,0,0,0-.439-1.089,1.706,1.706,0,0,0-.808-0.606,3.666,3.666,0,0,0-1.256-.185,9.732,9.732,0,0,0-1.4.088,4.464,4.464,0,0,0-.764.158v7.974h-1.142V503Z" transform="translate(-95.575 -431.5)"/>
      <path class="e845e9be-9931-44c7-b583-b997f55b79b5" d="M193.85,499.942a0.847,0.847,0,0,1-.246.641,0.87,0.87,0,0,1-1.194,0,0.96,0.96,0,0,1,0-1.282,0.873,0.873,0,0,1,1.194,0A0.85,0.85,0,0,1,193.85,499.942Zm-0.264,11.819h-1.142v-9.08h1.142v9.08Z" transform="translate(-95.575 -431.5)"/>
      <path class="e845e9be-9931-44c7-b583-b997f55b79b5" d="M199.356,510.532q0.37-.754.757-1.729t0.749-2.02q0.361-1.046.669-2.108t0.52-1.993h1.142q-0.318,1.248-.707,2.459t-0.822,2.371q-0.433,1.159-.9,2.23t-0.91,2.02h-1.064q-0.46-.948-0.919-2.02t-0.892-2.23q-0.433-1.159-.822-2.371t-0.707-2.459h1.212q0.212,0.932.52,1.993t0.669,2.108q0.361,1.044.749,2.02T199.356,510.532Z" transform="translate(-95.575 -431.5)"/>
      <path class="e845e9be-9931-44c7-b583-b997f55b79b5" d="M204.493,507.213a5.762,5.762,0,0,1,.343-2.081,4.592,4.592,0,0,1,.9-1.484,3.535,3.535,0,0,1,1.265-.887,3.848,3.848,0,0,1,1.466-.29,3.425,3.425,0,0,1,2.661,1.089,4.858,4.858,0,0,1,.992,3.354c0,0.095,0,.188-0.009.281s-0.015.182-.026,0.264H205.7a4.015,4.015,0,0,0,.826,2.564,3.081,3.081,0,0,0,2.458.9,4.962,4.962,0,0,0,1.475-.176,6.179,6.179,0,0,0,.791-0.3l0.211,0.983a4.767,4.767,0,0,1-.922.334,5.812,5.812,0,0,1-1.589.193,5.286,5.286,0,0,1-2.037-.352,3.644,3.644,0,0,1-1.388-.983,3.886,3.886,0,0,1-.79-1.5A6.971,6.971,0,0,1,204.493,507.213Zm6.445-.72a3.606,3.606,0,0,0-.667-2.213,2.161,2.161,0,0,0-1.792-.79,2.394,2.394,0,0,0-1.1.245,2.781,2.781,0,0,0-.843.659,3.047,3.047,0,0,0-.562.957,3.923,3.923,0,0,0-.237,1.142h5.2Z" transform="translate(-95.575 -431.5)"/>
      <path class="e845e9be-9931-44c7-b583-b997f55b79b5" d="M217.752,502.506a6.243,6.243,0,0,1,1.063.088,3.256,3.256,0,0,1,.693.176l-0.228.983a2.6,2.6,0,0,0-.571-0.149,6.527,6.527,0,0,0-1.133-.078,5.371,5.371,0,0,0-1.186.1,3.275,3.275,0,0,0-.588.176v7.956h-1.142V503.1a8.408,8.408,0,0,1,1.212-.4A7.573,7.573,0,0,1,217.752,502.506Z" transform="translate(-95.575 -431.5)"/>
      <path class="e845e9be-9931-44c7-b583-b997f55b79b5" d="M223.091,510.954a3.582,3.582,0,0,0,1.625-.325,1.133,1.133,0,0,0,.641-1.1,1.578,1.578,0,0,0-.114-0.632,1.249,1.249,0,0,0-.377-0.475,3.25,3.25,0,0,0-.694-0.4q-0.431-.192-1.062-0.456-0.51-.211-0.966-0.431a3.939,3.939,0,0,1-.808-0.509,2.225,2.225,0,0,1-.562-0.694,2.1,2.1,0,0,1-.211-0.983,2.206,2.206,0,0,1,.834-1.791,3.506,3.506,0,0,1,2.292-.686,6.222,6.222,0,0,1,1.537.158,4.88,4.88,0,0,1,.852.281l-0.263,1.019a6.836,6.836,0,0,0-.711-0.281,4.7,4.7,0,0,0-1.466-.175,3.233,3.233,0,0,0-.729.079,1.94,1.94,0,0,0-.606.246,1.315,1.315,0,0,0-.421.423,1.161,1.161,0,0,0-.158.624,1.332,1.332,0,0,0,.141.634,1.416,1.416,0,0,0,.413.467,3.48,3.48,0,0,0,.667.377q0.4,0.174.9,0.385,0.527,0.209,1.01.428a3.731,3.731,0,0,1,.852.526,2.434,2.434,0,0,1,.6.737,2.3,2.3,0,0,1,.229,1.08,2.111,2.111,0,0,1-.922,1.861,4.4,4.4,0,0,1-2.52.633,6.323,6.323,0,0,1-1.827-.2,7.055,7.055,0,0,1-.843-0.308l0.3-1.036a1.944,1.944,0,0,0,.229.114,4.749,4.749,0,0,0,.474.176,5.12,5.12,0,0,0,.711.167A5.752,5.752,0,0,0,223.091,510.954Z" transform="translate(-95.575 -431.5)"/>
      <path class="e845e9be-9931-44c7-b583-b997f55b79b5" d="M230.151,499.942a0.847,0.847,0,0,1-.246.641,0.87,0.87,0,0,1-1.194,0,0.96,0.96,0,0,1,0-1.282,0.873,0.873,0,0,1,1.194,0A0.85,0.85,0,0,1,230.151,499.942Zm-0.264,11.819h-1.142v-9.08h1.142v9.08Z" transform="translate(-95.575 -431.5)"/>
      <path class="e845e9be-9931-44c7-b583-b997f55b79b5" d="M240.126,511.48a10.279,10.279,0,0,1-1.3.334,10.475,10.475,0,0,1-2,.158,4.875,4.875,0,0,1-1.818-.325,3.925,3.925,0,0,1-1.4-.939,4.261,4.261,0,0,1-.913-1.493,5.684,5.684,0,0,1-.325-1.984,6.344,6.344,0,0,1,.272-1.905,4.34,4.34,0,0,1,.8-1.5,3.644,3.644,0,0,1,1.291-.983,4.137,4.137,0,0,1,1.748-.352,4.319,4.319,0,0,1,1.554.255,4.065,4.065,0,0,1,.957.483v-4.883l1.142-.211V511.48Zm-1.142-7.147a3.829,3.829,0,0,0-.4-0.264,3.759,3.759,0,0,0-.553-0.264,4.586,4.586,0,0,0-.685-0.2,3.674,3.674,0,0,0-.772-0.078,3.037,3.037,0,0,0-1.414.3,2.547,2.547,0,0,0-.922.8,3.347,3.347,0,0,0-.509,1.176,6.275,6.275,0,0,0-.158,1.432,3.877,3.877,0,0,0,.9,2.749,3.1,3.1,0,0,0,2.371.957,9.39,9.39,0,0,0,1.361-.079,5.055,5.055,0,0,0,.781-0.167v-6.357Z" transform="translate(-95.575 -431.5)"/>
      <path class="e845e9be-9931-44c7-b583-b997f55b79b5" d="M245.9,502.471a4.036,4.036,0,0,1,1.519.255,2.612,2.612,0,0,1,1.01.7,2.762,2.762,0,0,1,.562,1.063,4.852,4.852,0,0,1,.175,1.334v5.726a5.146,5.146,0,0,1-.509.114q-0.334.062-.772,0.132t-0.975.114q-0.535.044-1.1,0.044a5.238,5.238,0,0,1-1.326-.158,2.928,2.928,0,0,1-1.054-.5,2.347,2.347,0,0,1-.7-0.878,3.027,3.027,0,0,1-.255-1.309,2.648,2.648,0,0,1,.281-1.264,2.389,2.389,0,0,1,.791-0.87,3.558,3.558,0,0,1,1.211-.5,6.952,6.952,0,0,1,1.528-.158q0.245,0,.518.026t0.527,0.07q0.254,0.044.439,0.088a1.332,1.332,0,0,1,.254.079v-0.562a5.944,5.944,0,0,0-.07-0.922,2.016,2.016,0,0,0-.307-0.808,1.706,1.706,0,0,0-.667-0.58,2.514,2.514,0,0,0-1.133-.219,5.9,5.9,0,0,0-1.493.14c-0.328.095-.568,0.17-0.72,0.229l-0.158-1a4.226,4.226,0,0,1,.922-0.264A7.957,7.957,0,0,1,245.9,502.471Zm0.105,8.466q0.667,0,1.168-.044a7.99,7.99,0,0,0,.852-0.114v-3.2a3.5,3.5,0,0,0-.615-0.185,5.431,5.431,0,0,0-1.159-.1,6.579,6.579,0,0,0-.878.062,2.527,2.527,0,0,0-.843.264,1.751,1.751,0,0,0-.632.553,1.593,1.593,0,0,0-.246.931,2,2,0,0,0,.167.861,1.387,1.387,0,0,0,.474.562,2.1,2.1,0,0,0,.738.308A4.46,4.46,0,0,0,246.01,510.937Z" transform="translate(-95.575 -431.5)"/>
      <path class="e845e9be-9931-44c7-b583-b997f55b79b5" d="M259.3,511.48a10.279,10.279,0,0,1-1.3.334,10.475,10.475,0,0,1-2,.158,4.875,4.875,0,0,1-1.818-.325,3.925,3.925,0,0,1-1.4-.939,4.261,4.261,0,0,1-.913-1.493,5.684,5.684,0,0,1-.325-1.984,6.344,6.344,0,0,1,.272-1.905,4.34,4.34,0,0,1,.8-1.5,3.644,3.644,0,0,1,1.291-.983,4.137,4.137,0,0,1,1.748-.352,4.319,4.319,0,0,1,1.554.255,4.065,4.065,0,0,1,.957.483v-4.883l1.142-.211V511.48Zm-1.142-7.147a3.829,3.829,0,0,0-.4-0.264,3.759,3.759,0,0,0-.553-0.264,4.586,4.586,0,0,0-.685-0.2,3.674,3.674,0,0,0-.772-0.078,3.037,3.037,0,0,0-1.414.3,2.547,2.547,0,0,0-.922.8,3.347,3.347,0,0,0-.509,1.176,6.275,6.275,0,0,0-.158,1.432,3.877,3.877,0,0,0,.9,2.749,3.1,3.1,0,0,0,2.371.957,9.39,9.39,0,0,0,1.361-.079,5.055,5.055,0,0,0,.781-0.167v-6.357Z" transform="translate(-95.575 -431.5)"/>
      <path class="e845e9be-9931-44c7-b583-b997f55b79b5" d="M261.78,507.213a5.762,5.762,0,0,1,.343-2.081,4.592,4.592,0,0,1,.9-1.484,3.535,3.535,0,0,1,1.265-.887,3.848,3.848,0,0,1,1.466-.29,3.425,3.425,0,0,1,2.661,1.089,4.858,4.858,0,0,1,.992,3.354c0,0.095,0,.188-0.009.281s-0.015.182-.026,0.264h-6.375a4.015,4.015,0,0,0,.826,2.564,3.081,3.081,0,0,0,2.458.9,4.962,4.962,0,0,0,1.475-.176,6.179,6.179,0,0,0,.791-0.3l0.211,0.983a4.767,4.767,0,0,1-.922.334,5.812,5.812,0,0,1-1.589.193,5.286,5.286,0,0,1-2.037-.352,3.644,3.644,0,0,1-1.388-.983,3.886,3.886,0,0,1-.79-1.5A6.971,6.971,0,0,1,261.78,507.213Zm6.445-.72a3.606,3.606,0,0,0-.667-2.213,2.161,2.161,0,0,0-1.792-.79,2.394,2.394,0,0,0-1.1.245,2.781,2.781,0,0,0-.843.659,3.047,3.047,0,0,0-.562.957,3.923,3.923,0,0,0-.237,1.142h5.2Z" transform="translate(-95.575 -431.5)"/>
      <path class="e845e9be-9931-44c7-b583-b997f55b79b5" d="M276.023,511.762V499.591h7.025v1.036h-5.831v4.232h5.2v1.019h-5.2v4.848H283.5v1.036h-7.481Z" transform="translate(-95.575 -431.5)"/>
      <path class="e845e9be-9931-44c7-b583-b997f55b79b5" d="M287.562,510.954a3.582,3.582,0,0,0,1.625-.325,1.133,1.133,0,0,0,.641-1.1,1.578,1.578,0,0,0-.114-0.632,1.249,1.249,0,0,0-.377-0.475,3.25,3.25,0,0,0-.694-0.4q-0.431-.192-1.062-0.456-0.51-.211-0.966-0.431a3.939,3.939,0,0,1-.808-0.509,2.225,2.225,0,0,1-.562-0.694,2.1,2.1,0,0,1-.211-0.983,2.206,2.206,0,0,1,.834-1.791,3.506,3.506,0,0,1,2.292-.686,6.222,6.222,0,0,1,1.537.158,4.88,4.88,0,0,1,.852.281l-0.263,1.019a6.836,6.836,0,0,0-.711-0.281,4.7,4.7,0,0,0-1.466-.175,3.233,3.233,0,0,0-.729.079,1.94,1.94,0,0,0-.606.246,1.315,1.315,0,0,0-.421.423,1.161,1.161,0,0,0-.158.624,1.332,1.332,0,0,0,.141.634,1.416,1.416,0,0,0,.413.467,3.48,3.48,0,0,0,.667.377q0.4,0.174.9,0.385,0.527,0.209,1.01.428a3.731,3.731,0,0,1,.852.526,2.434,2.434,0,0,1,.6.737,2.3,2.3,0,0,1,.229,1.08,2.111,2.111,0,0,1-.922,1.861,4.4,4.4,0,0,1-2.52.633,6.323,6.323,0,0,1-1.827-.2,7.055,7.055,0,0,1-.843-0.308l0.3-1.036a1.944,1.944,0,0,0,.229.114,4.749,4.749,0,0,0,.474.176,5.12,5.12,0,0,0,.711.167A5.752,5.752,0,0,0,287.562,510.954Z" transform="translate(-95.575 -431.5)"/>
      <path class="e845e9be-9931-44c7-b583-b997f55b79b5" d="M294.288,502.682h3.618v0.966h-3.618v4.83a4.9,4.9,0,0,0,.132,1.256,1.75,1.75,0,0,0,.377.746,1.2,1.2,0,0,0,.6.352,3.183,3.183,0,0,0,.773.088,3.328,3.328,0,0,0,1.159-.167,5.058,5.058,0,0,0,.685-0.308l0.281,0.948a4.131,4.131,0,0,1-.86.36,4.253,4.253,0,0,1-1.335.2,3.957,3.957,0,0,1-1.414-.22,2.05,2.05,0,0,1-.914-0.667,2.747,2.747,0,0,1-.483-1.115,7.761,7.761,0,0,1-.141-1.581v-8.359l1.142-.211v2.88Z" transform="translate(-95.575 -431.5)"/>
      <path class="e845e9be-9931-44c7-b583-b997f55b79b5" d="M302.771,502.471a4.036,4.036,0,0,1,1.519.255,2.612,2.612,0,0,1,1.01.7,2.768,2.768,0,0,1,.562,1.063,4.833,4.833,0,0,1,.176,1.334v5.726a5.163,5.163,0,0,1-.509.114c-0.224.041-.48,0.085-0.773,0.132s-0.618.085-.975,0.114-0.723.044-1.1,0.044a5.238,5.238,0,0,1-1.326-.158,2.928,2.928,0,0,1-1.054-.5,2.347,2.347,0,0,1-.7-0.878,3.027,3.027,0,0,1-.255-1.309,2.648,2.648,0,0,1,.281-1.264,2.389,2.389,0,0,1,.791-0.87,3.558,3.558,0,0,1,1.211-.5,6.952,6.952,0,0,1,1.528-.158q0.245,0,.518.026t0.527,0.07q0.254,0.044.439,0.088a1.332,1.332,0,0,1,.254.079v-0.562a5.944,5.944,0,0,0-.07-0.922,2.016,2.016,0,0,0-.307-0.808,1.706,1.706,0,0,0-.667-0.58,2.514,2.514,0,0,0-1.133-.219,5.9,5.9,0,0,0-1.493.14c-0.328.095-.568,0.17-0.72,0.229l-0.158-1a4.226,4.226,0,0,1,.922-0.264A7.957,7.957,0,0,1,302.771,502.471Zm0.105,8.466q0.667,0,1.168-.044a7.99,7.99,0,0,0,.852-0.114v-3.2a3.5,3.5,0,0,0-.615-0.185,5.431,5.431,0,0,0-1.159-.1,6.579,6.579,0,0,0-.878.062,2.527,2.527,0,0,0-.843.264,1.751,1.751,0,0,0-.632.553,1.593,1.593,0,0,0-.246.931,2,2,0,0,0,.167.861,1.387,1.387,0,0,0,.474.562,2.1,2.1,0,0,0,.738.308A4.46,4.46,0,0,0,302.876,510.937Z" transform="translate(-95.575 -431.5)"/>
      <path class="e845e9be-9931-44c7-b583-b997f55b79b5" d="M316.171,511.48a10.256,10.256,0,0,1-1.3.334,10.475,10.475,0,0,1-2,.158,4.872,4.872,0,0,1-1.817-.325,3.927,3.927,0,0,1-1.405-.939,4.268,4.268,0,0,1-.913-1.493,5.684,5.684,0,0,1-.325-1.984,6.344,6.344,0,0,1,.272-1.905,4.34,4.34,0,0,1,.8-1.5,3.64,3.64,0,0,1,1.291-.983,4.134,4.134,0,0,1,1.747-.352,4.322,4.322,0,0,1,1.555.255,4.055,4.055,0,0,1,.957.483v-4.883l1.142-.211V511.48Zm-1.142-7.147a3.841,3.841,0,0,0-.4-0.264,3.705,3.705,0,0,0-.553-0.264,4.614,4.614,0,0,0-.685-0.2,3.683,3.683,0,0,0-.773-0.078,3.032,3.032,0,0,0-1.413.3,2.55,2.55,0,0,0-.923.8,3.346,3.346,0,0,0-.509,1.176,6.275,6.275,0,0,0-.158,1.432,3.879,3.879,0,0,0,.9,2.749,3.1,3.1,0,0,0,2.371.957,9.385,9.385,0,0,0,1.361-.079,5.069,5.069,0,0,0,.781-0.167v-6.357Z" transform="translate(-95.575 -431.5)"/>
      <path class="e845e9be-9931-44c7-b583-b997f55b79b5" d="M326.163,511.445q-0.51.141-1.369,0.316a10.74,10.74,0,0,1-2.108.176,4.267,4.267,0,0,1-1.7-.3,2.764,2.764,0,0,1-1.106-.843,3.4,3.4,0,0,1-.605-1.317,7.33,7.33,0,0,1-.185-1.7v-5.094h1.142v4.725a7.992,7.992,0,0,0,.141,1.633,2.633,2.633,0,0,0,.456,1.08,1.786,1.786,0,0,0,.816.6,3.549,3.549,0,0,0,1.221.185,9.786,9.786,0,0,0,1.405-.088,3.784,3.784,0,0,0,.755-0.158v-7.974h1.142v8.764Z" transform="translate(-95.575 -431.5)"/>
      <path class="e845e9be-9931-44c7-b583-b997f55b79b5" d="M331.941,502.471a4.039,4.039,0,0,1,1.52.255,2.614,2.614,0,0,1,1.01.7,2.768,2.768,0,0,1,.562,1.063,4.833,4.833,0,0,1,.176,1.334v5.726a5.163,5.163,0,0,1-.509.114q-0.334.062-.773,0.132c-0.293.047-.617,0.085-0.975,0.114s-0.723.044-1.1,0.044a5.242,5.242,0,0,1-1.326-.158,2.936,2.936,0,0,1-1.054-.5,2.36,2.36,0,0,1-.7-0.878,3.027,3.027,0,0,1-.255-1.309,2.648,2.648,0,0,1,.281-1.264,2.392,2.392,0,0,1,.79-0.87,3.561,3.561,0,0,1,1.212-.5,6.955,6.955,0,0,1,1.528-.158c0.164,0,.336.009,0.518,0.026s0.357,0.041.527,0.07,0.316,0.059.438,0.088a1.34,1.34,0,0,1,.255.079v-0.562A5.944,5.944,0,0,0,334,505.1a2.03,2.03,0,0,0-.307-0.808,1.707,1.707,0,0,0-.668-0.58,2.512,2.512,0,0,0-1.133-.219,5.9,5.9,0,0,0-1.492.14c-0.328.095-.568,0.17-0.721,0.229l-0.158-1a4.243,4.243,0,0,1,.922-0.264A7.963,7.963,0,0,1,331.941,502.471Zm0.105,8.466q0.668,0,1.168-.044a7.973,7.973,0,0,0,.852-0.114v-3.2a3.515,3.515,0,0,0-.614-0.185,5.442,5.442,0,0,0-1.159-.1,6.566,6.566,0,0,0-.878.062,2.536,2.536,0,0,0-.844.264,1.753,1.753,0,0,0-.632.553,1.593,1.593,0,0,0-.246.931,2,2,0,0,0,.167.861,1.388,1.388,0,0,0,.475.562,2.1,2.1,0,0,0,.737.308A4.463,4.463,0,0,0,332.047,510.937Z" transform="translate(-95.575 -431.5)"/>
      <path class="e845e9be-9931-44c7-b583-b997f55b79b5" d="M340.425,511.92a3.871,3.871,0,0,1-1.011-.149,1.808,1.808,0,0,1-.72-0.4,1.694,1.694,0,0,1-.438-0.7,3.306,3.306,0,0,1-.149-1.08v-11.24l1.142-.211v11.416a2.339,2.339,0,0,0,.079.676,0.906,0.906,0,0,0,.236.4,0.962,0.962,0,0,0,.413.22,5.208,5.208,0,0,0,.605.123Z" transform="translate(-95.575 -431.5)"/>
      <path class="e845e9be-9931-44c7-b583-b997f55b79b5" d="M353.824,511.48a10.256,10.256,0,0,1-1.3.334,10.475,10.475,0,0,1-2,.158,4.872,4.872,0,0,1-1.817-.325,3.927,3.927,0,0,1-1.405-.939,4.268,4.268,0,0,1-.913-1.493,5.684,5.684,0,0,1-.325-1.984,6.344,6.344,0,0,1,.272-1.905,4.34,4.34,0,0,1,.8-1.5,3.64,3.64,0,0,1,1.291-.983,4.134,4.134,0,0,1,1.747-.352,4.322,4.322,0,0,1,1.555.255,4.055,4.055,0,0,1,.957.483v-4.883l1.142-.211V511.48Zm-1.142-7.147a3.841,3.841,0,0,0-.4-0.264,3.705,3.705,0,0,0-.553-0.264,4.614,4.614,0,0,0-.685-0.2,3.683,3.683,0,0,0-.773-0.078,3.032,3.032,0,0,0-1.413.3,2.55,2.55,0,0,0-.923.8,3.346,3.346,0,0,0-.509,1.176,6.275,6.275,0,0,0-.158,1.432,3.879,3.879,0,0,0,.9,2.749,3.1,3.1,0,0,0,2.371.957,9.385,9.385,0,0,0,1.361-.079,5.069,5.069,0,0,0,.781-0.167v-6.357Z" transform="translate(-95.575 -431.5)"/>
      <path class="e845e9be-9931-44c7-b583-b997f55b79b5" d="M359.6,502.471a4.039,4.039,0,0,1,1.52.255,2.614,2.614,0,0,1,1.01.7,2.768,2.768,0,0,1,.562,1.063,4.833,4.833,0,0,1,.176,1.334v5.726a5.163,5.163,0,0,1-.509.114q-0.334.062-.773,0.132c-0.293.047-.617,0.085-0.975,0.114s-0.723.044-1.1,0.044a5.242,5.242,0,0,1-1.326-.158,2.936,2.936,0,0,1-1.054-.5,2.36,2.36,0,0,1-.7-0.878,3.027,3.027,0,0,1-.255-1.309,2.648,2.648,0,0,1,.281-1.264,2.392,2.392,0,0,1,.79-0.87,3.561,3.561,0,0,1,1.212-.5,6.955,6.955,0,0,1,1.528-.158c0.164,0,.336.009,0.518,0.026s0.357,0.041.527,0.07,0.316,0.059.438,0.088a1.34,1.34,0,0,1,.255.079v-0.562a5.944,5.944,0,0,0-.07-0.922,2.03,2.03,0,0,0-.307-0.808,1.707,1.707,0,0,0-.668-0.58,2.512,2.512,0,0,0-1.133-.219,5.9,5.9,0,0,0-1.492.14c-0.328.095-.568,0.17-0.721,0.229l-0.158-1a4.243,4.243,0,0,1,.922-0.264A7.963,7.963,0,0,1,359.6,502.471Zm0.105,8.466q0.668,0,1.168-.044a7.973,7.973,0,0,0,.852-0.114v-3.2a3.515,3.515,0,0,0-.614-0.185,5.442,5.442,0,0,0-1.159-.1,6.566,6.566,0,0,0-.878.062,2.536,2.536,0,0,0-.844.264,1.753,1.753,0,0,0-.632.553,1.593,1.593,0,0,0-.246.931,2,2,0,0,0,.167.861,1.388,1.388,0,0,0,.475.562,2.1,2.1,0,0,0,.737.308A4.463,4.463,0,0,0,359.707,510.937Z" transform="translate(-95.575 -431.5)"/>
      <path class="e845e9be-9931-44c7-b583-b997f55b79b5" d="M372.932,499.485a6.223,6.223,0,0,1,3.846.983,3.333,3.333,0,0,1,1.265,2.793,3.869,3.869,0,0,1-.369,1.765,2.992,2.992,0,0,1-1.054,1.177,4.756,4.756,0,0,1-1.677.649,11.276,11.276,0,0,1-2.239.2h-1.651v4.707h-1.193V499.819a8.528,8.528,0,0,1,1.483-.255Q372.194,499.485,372.932,499.485Zm0.053,1.036q-0.668,0-1.133.044t-0.8.079v5.374h1.511a12.143,12.143,0,0,0,1.747-.114,3.862,3.862,0,0,0,1.335-.421,2.142,2.142,0,0,0,.853-0.852,2.878,2.878,0,0,0,.3-1.388,2.512,2.512,0,0,0-.324-1.335,2.4,2.4,0,0,0-.861-0.834,3.769,3.769,0,0,0-1.221-.431A7.923,7.923,0,0,0,372.984,500.521Z" transform="translate(-95.575 -431.5)"/>
      <path class="e845e9be-9931-44c7-b583-b997f55b79b5" d="M382.8,502.471a4.039,4.039,0,0,1,1.52.255,2.614,2.614,0,0,1,1.01.7,2.768,2.768,0,0,1,.562,1.063,4.833,4.833,0,0,1,.176,1.334v5.726a5.163,5.163,0,0,1-.509.114q-0.334.062-.773,0.132c-0.293.047-.617,0.085-0.975,0.114s-0.723.044-1.1,0.044a5.242,5.242,0,0,1-1.326-.158,2.936,2.936,0,0,1-1.054-.5,2.36,2.36,0,0,1-.7-0.878,3.027,3.027,0,0,1-.255-1.309,2.648,2.648,0,0,1,.281-1.264,2.392,2.392,0,0,1,.79-0.87,3.561,3.561,0,0,1,1.212-.5,6.955,6.955,0,0,1,1.528-.158c0.164,0,.336.009,0.518,0.026s0.357,0.041.527,0.07,0.316,0.059.438,0.088a1.34,1.34,0,0,1,.255.079v-0.562a5.944,5.944,0,0,0-.07-0.922,2.03,2.03,0,0,0-.307-0.808,1.707,1.707,0,0,0-.668-0.58,2.512,2.512,0,0,0-1.133-.219,5.9,5.9,0,0,0-1.492.14c-0.328.095-.568,0.17-0.721,0.229l-0.158-1a4.243,4.243,0,0,1,.922-0.264A7.963,7.963,0,0,1,382.8,502.471Zm0.105,8.466q0.668,0,1.168-.044a7.973,7.973,0,0,0,.852-0.114v-3.2a3.515,3.515,0,0,0-.614-0.185,5.442,5.442,0,0,0-1.159-.1,6.566,6.566,0,0,0-.878.062,2.536,2.536,0,0,0-.844.264,1.753,1.753,0,0,0-.632.553,1.593,1.593,0,0,0-.246.931,2,2,0,0,0,.167.861,1.388,1.388,0,0,0,.475.562,2.1,2.1,0,0,0,.737.308A4.463,4.463,0,0,0,382.907,510.937Z" transform="translate(-95.575 -431.5)"/>
      <path class="e845e9be-9931-44c7-b583-b997f55b79b5" d="M392.074,502.506a6.247,6.247,0,0,1,1.063.088,3.247,3.247,0,0,1,.693.176l-0.229.983a2.584,2.584,0,0,0-.57-0.149,6.531,6.531,0,0,0-1.133-.078,5.368,5.368,0,0,0-1.186.1,3.226,3.226,0,0,0-.588.176v7.956h-1.142V503.1a8.367,8.367,0,0,1,1.212-.4A7.563,7.563,0,0,1,392.074,502.506Z" transform="translate(-95.575 -431.5)"/>
      <path class="e845e9be-9931-44c7-b583-b997f55b79b5" d="M398.309,502.471a4.039,4.039,0,0,1,1.52.255,2.614,2.614,0,0,1,1.01.7,2.768,2.768,0,0,1,.562,1.063,4.833,4.833,0,0,1,.176,1.334v5.726a5.163,5.163,0,0,1-.509.114q-0.334.062-.773,0.132c-0.293.047-.617,0.085-0.975,0.114s-0.723.044-1.1,0.044a5.242,5.242,0,0,1-1.326-.158,2.936,2.936,0,0,1-1.054-.5,2.36,2.36,0,0,1-.7-0.878,3.027,3.027,0,0,1-.255-1.309,2.648,2.648,0,0,1,.281-1.264,2.392,2.392,0,0,1,.79-0.87,3.561,3.561,0,0,1,1.212-.5,6.955,6.955,0,0,1,1.528-.158c0.164,0,.336.009,0.518,0.026s0.357,0.041.527,0.07,0.316,0.059.438,0.088a1.34,1.34,0,0,1,.255.079v-0.562a5.944,5.944,0,0,0-.07-0.922,2.03,2.03,0,0,0-.307-0.808,1.707,1.707,0,0,0-.668-0.58,2.512,2.512,0,0,0-1.133-.219,5.9,5.9,0,0,0-1.492.14c-0.328.095-.568,0.17-0.721,0.229l-0.158-1a4.243,4.243,0,0,1,.922-0.264A7.963,7.963,0,0,1,398.309,502.471Zm0.105,8.466q0.668,0,1.168-.044a7.973,7.973,0,0,0,.852-0.114v-3.2a3.515,3.515,0,0,0-.614-0.185,5.442,5.442,0,0,0-1.159-.1,6.566,6.566,0,0,0-.878.062,2.536,2.536,0,0,0-.844.264,1.753,1.753,0,0,0-.632.553,1.593,1.593,0,0,0-.246.931,2,2,0,0,0,.167.861,1.388,1.388,0,0,0,.475.562,2.1,2.1,0,0,0,.737.308A4.463,4.463,0,0,0,398.414,510.937Z" transform="translate(-95.575 -431.5)"/>
      <path class="e845e9be-9931-44c7-b583-b997f55b79b5" d="M407.477,499.082l-3,2.44-0.58-.667,2.775-2.67Zm-1.844,12.68h-1.142v-9.08h1.142v9.08Z" transform="translate(-95.575 -431.5)"/>
      <path class="e845e9be-9931-44c7-b583-b997f55b79b5" d="M409.795,503.227a4.036,4.036,0,0,1,.957-0.483,4.317,4.317,0,0,1,1.554-.255,4.139,4.139,0,0,1,1.748.352,3.649,3.649,0,0,1,1.291.983,4.356,4.356,0,0,1,.8,1.5,6.344,6.344,0,0,1,.272,1.905,5.684,5.684,0,0,1-.325,1.984,4.282,4.282,0,0,1-.913,1.493,3.935,3.935,0,0,1-1.405.939,4.876,4.876,0,0,1-1.817.325,10.487,10.487,0,0,1-2-.158,10.236,10.236,0,0,1-1.3-.334V498.344l1.142-.211v5.094Zm0,7.464a5.016,5.016,0,0,0,.781.167,9.376,9.376,0,0,0,1.361.079,3.093,3.093,0,0,0,2.37-.957,3.875,3.875,0,0,0,.9-2.749,6.275,6.275,0,0,0-.158-1.432,3.348,3.348,0,0,0-.51-1.176,2.547,2.547,0,0,0-.922-0.8,3.037,3.037,0,0,0-1.414-.3,3.674,3.674,0,0,0-.772.078,4.579,4.579,0,0,0-.685.2,3.766,3.766,0,0,0-.554.264,3.713,3.713,0,0,0-.395.264v6.357Z" transform="translate(-95.575 -431.5)"/>
      <path class="e845e9be-9931-44c7-b583-b997f55b79b5" d="M421.648,502.471a4.039,4.039,0,0,1,1.52.255,2.614,2.614,0,0,1,1.01.7,2.768,2.768,0,0,1,.562,1.063,4.833,4.833,0,0,1,.176,1.334v5.726a5.163,5.163,0,0,1-.509.114q-0.334.062-.773,0.132c-0.293.047-.617,0.085-0.975,0.114s-0.723.044-1.1,0.044a5.242,5.242,0,0,1-1.326-.158,2.936,2.936,0,0,1-1.054-.5,2.36,2.36,0,0,1-.7-0.878,3.027,3.027,0,0,1-.255-1.309,2.648,2.648,0,0,1,.281-1.264,2.392,2.392,0,0,1,.79-0.87,3.561,3.561,0,0,1,1.212-.5,6.955,6.955,0,0,1,1.528-.158c0.164,0,.336.009,0.518,0.026s0.357,0.041.527,0.07,0.316,0.059.438,0.088a1.34,1.34,0,0,1,.255.079v-0.562a5.944,5.944,0,0,0-.07-0.922,2.03,2.03,0,0,0-.307-0.808,1.707,1.707,0,0,0-.668-0.58,2.512,2.512,0,0,0-1.133-.219,5.9,5.9,0,0,0-1.492.14c-0.328.095-.568,0.17-0.721,0.229l-0.158-1a4.243,4.243,0,0,1,.922-0.264A7.963,7.963,0,0,1,421.648,502.471Zm0.105,8.466q0.668,0,1.168-.044a7.973,7.973,0,0,0,.852-0.114v-3.2a3.515,3.515,0,0,0-.614-0.185,5.442,5.442,0,0,0-1.159-.1,6.566,6.566,0,0,0-.878.062,2.536,2.536,0,0,0-.844.264,1.753,1.753,0,0,0-.632.553,1.593,1.593,0,0,0-.246.931,2,2,0,0,0,.167.861,1.388,1.388,0,0,0,.475.562,2.1,2.1,0,0,0,.737.308A4.463,4.463,0,0,0,421.754,510.937Z" transform="translate(-95.575 -431.5)"/>
    </g>
  </g>
</svg>
